<mxfile host="Electron" agent="Mozilla/5.0 (Windows NT 10.0; Win64; x64) AppleWebKit/537.36 (KHTML, like Gecko) draw.io/28.0.6 Chrome/138.0.7204.100 Electron/37.2.3 Safari/537.36" version="28.0.6">
  <diagram name="Page-1" id="C6uBVzHvEq-UzsvP1SKt">
    <mxGraphModel dx="1426" dy="841" grid="1" gridSize="10" guides="1" tooltips="1" connect="1" arrows="1" fold="1" page="1" pageScale="1" pageWidth="850" pageHeight="1100" math="0" shadow="0">
      <root>
        <mxCell id="0" />
        <mxCell id="1" parent="0" />
        <mxCell id="0FQ1X4St2KFv3-fqBpn6-4" style="edgeStyle=orthogonalEdgeStyle;rounded=0;orthogonalLoop=1;jettySize=auto;html=1;" edge="1" parent="1" source="0FQ1X4St2KFv3-fqBpn6-2" target="0FQ1X4St2KFv3-fqBpn6-3">
          <mxGeometry relative="1" as="geometry" />
        </mxCell>
        <mxCell id="0FQ1X4St2KFv3-fqBpn6-5" value="Upload Event" style="edgeLabel;html=1;align=center;verticalAlign=middle;resizable=0;points=[];" vertex="1" connectable="0" parent="0FQ1X4St2KFv3-fqBpn6-4">
          <mxGeometry x="-0.0727" y="2" relative="1" as="geometry">
            <mxPoint as="offset" />
          </mxGeometry>
        </mxCell>
        <mxCell id="0FQ1X4St2KFv3-fqBpn6-2" value="Landing Zone" style="sketch=0;outlineConnect=0;fontColor=#232F3E;gradientColor=none;fillColor=#7AA116;strokeColor=none;dashed=0;verticalLabelPosition=bottom;verticalAlign=top;align=center;html=1;fontSize=12;fontStyle=0;aspect=fixed;pointerEvents=1;shape=mxgraph.aws4.file_cache_s3_linked_datasets;" vertex="1" parent="1">
          <mxGeometry x="40" y="72" width="80" height="80" as="geometry" />
        </mxCell>
        <mxCell id="0FQ1X4St2KFv3-fqBpn6-7" style="edgeStyle=orthogonalEdgeStyle;rounded=0;orthogonalLoop=1;jettySize=auto;html=1;" edge="1" parent="1" source="0FQ1X4St2KFv3-fqBpn6-3" target="0FQ1X4St2KFv3-fqBpn6-6">
          <mxGeometry relative="1" as="geometry" />
        </mxCell>
        <mxCell id="0FQ1X4St2KFv3-fqBpn6-8" value="Cleaned Data" style="edgeLabel;html=1;align=center;verticalAlign=middle;resizable=0;points=[];" vertex="1" connectable="0" parent="0FQ1X4St2KFv3-fqBpn6-7">
          <mxGeometry x="-0.2259" y="1" relative="1" as="geometry">
            <mxPoint as="offset" />
          </mxGeometry>
        </mxCell>
        <mxCell id="0FQ1X4St2KFv3-fqBpn6-3" value="FileProcessor" style="sketch=0;outlineConnect=0;fontColor=#232F3E;gradientColor=none;fillColor=#ED7100;strokeColor=none;dashed=0;verticalLabelPosition=bottom;verticalAlign=top;align=center;html=1;fontSize=12;fontStyle=0;aspect=fixed;pointerEvents=1;shape=mxgraph.aws4.lambda_function;" vertex="1" parent="1">
          <mxGeometry x="215" y="68" width="88" height="88" as="geometry" />
        </mxCell>
        <mxCell id="0FQ1X4St2KFv3-fqBpn6-10" style="edgeStyle=orthogonalEdgeStyle;rounded=0;orthogonalLoop=1;jettySize=auto;html=1;" edge="1" parent="1" source="0FQ1X4St2KFv3-fqBpn6-6" target="0FQ1X4St2KFv3-fqBpn6-9">
          <mxGeometry relative="1" as="geometry" />
        </mxCell>
        <mxCell id="0FQ1X4St2KFv3-fqBpn6-13" value="Upload Event" style="edgeLabel;html=1;align=center;verticalAlign=middle;resizable=0;points=[];" vertex="1" connectable="0" parent="0FQ1X4St2KFv3-fqBpn6-10">
          <mxGeometry x="-0.0489" y="1" relative="1" as="geometry">
            <mxPoint as="offset" />
          </mxGeometry>
        </mxCell>
        <mxCell id="0FQ1X4St2KFv3-fqBpn6-6" value="Curated Zone" style="sketch=0;outlineConnect=0;fontColor=#232F3E;gradientColor=none;fillColor=#7AA116;strokeColor=none;dashed=0;verticalLabelPosition=bottom;verticalAlign=top;align=center;html=1;fontSize=12;fontStyle=0;aspect=fixed;pointerEvents=1;shape=mxgraph.aws4.file_cache_s3_linked_datasets;" vertex="1" parent="1">
          <mxGeometry x="395" y="68" width="80" height="80" as="geometry" />
        </mxCell>
        <mxCell id="0FQ1X4St2KFv3-fqBpn6-9" value="ModelTraining" style="sketch=0;outlineConnect=0;fontColor=#232F3E;gradientColor=none;fillColor=#ED7100;strokeColor=none;dashed=0;verticalLabelPosition=bottom;verticalAlign=top;align=center;html=1;fontSize=12;fontStyle=0;aspect=fixed;pointerEvents=1;shape=mxgraph.aws4.lambda_function;" vertex="1" parent="1">
          <mxGeometry x="570" y="60" width="88" height="88" as="geometry" />
        </mxCell>
      </root>
    </mxGraphModel>
  </diagram>
</mxfile>
